<svg width="32" height="32" viewBox="0 0 32 32" fill="none" xmlns="http://www.w3.org/2000/svg">
  <path d="M32.0404 15.3266C32.0404 14.6588 31.9691 13.9989 31.8242 13.3469C31.8175 13.2728 31.8169 13.1981 31.8029 13.1251C31.367 10.8258 30.469 8.72196 29.1189 6.81245C28.3612 5.742 27.5008 4.76253 26.4849 3.92741C26.418 3.86338 26.3546 3.79542 26.2838 3.73702C23.4718 1.41865 20.2486 0.165673 16.6043 0.0145967C15.5861 -0.0275248 14.5701 0.0174048 13.5654 0.211725C13.4817 0.218465 13.3969 0.218465 13.3149 0.233629C11.1695 0.638557 9.15384 1.38102 7.3325 2.59973C3.43205 5.20902 1.01877 8.81968 0.226885 13.448C-0.306655 16.5667 0.103328 19.5921 1.42482 22.4878C4.42163 29.0543 11.616 33.3889 19.4085 31.5917C25.6559 30.1506 29.6754 26.181 31.5305 20.0453C31.9944 18.511 32.1196 16.9267 32.0404 15.3266ZM30.3595 19.7084C28.6617 25.1741 25.1443 28.9077 19.5562 30.268C13.3289 31.7832 8.17774 29.7496 4.23404 24.7377C2.19031 22.1408 1.15749 19.1406 1.21814 15.8225C1.29396 11.6974 2.90413 8.21313 5.85713 5.36235C7.85762 3.43093 10.2366 2.15942 12.9622 1.55849C12.9976 1.55063 13.0301 1.53153 13.0644 1.51749C13.0801 1.53209 13.0964 1.54333 13.1133 1.55175C13.1284 1.53266 13.1447 1.51637 13.1621 1.50401C13.8327 1.41303 14.5005 1.29621 15.1778 1.25971C19.0299 1.05528 22.4311 2.21222 25.4156 4.63954C26.3776 5.42188 27.233 6.31598 27.9518 7.31341C29.4334 9.37119 30.4494 11.6368 30.7605 14.1848C30.8728 15.1014 30.8874 16.0185 30.8605 16.9385H30.8588C30.8588 16.9385 30.8537 16.9413 30.8509 16.9435C30.8537 16.9474 30.8565 16.9514 30.8599 16.9547C30.7582 17.8848 30.6381 18.8126 30.3595 19.7084Z" fill="white"/>
  <path d="M28.4876 15.8248C24.4041 11.7732 20.3183 7.72396 16.2387 3.6685C16.0814 3.51237 16.0039 3.48541 15.8298 3.65951C12.8459 6.64115 9.85418 9.61493 6.86355 12.5904C5.78355 13.6648 4.70187 14.738 3.62075 15.8119C3.49214 15.8933 3.38656 15.9781 3.5747 16.1084C3.74038 16.2662 3.90606 16.4235 4.07174 16.5813C4.14699 16.6633 4.21888 16.7486 4.29751 16.8273C8.12888 20.6384 11.9631 24.4479 15.7894 28.2652C15.9781 28.4534 16.0691 28.491 16.2808 28.2787C18.4722 26.0805 20.6788 23.8969 22.8787 21.7066C23.7857 20.8035 24.6854 19.8937 25.5885 18.9867C26.5759 18.0179 27.5615 17.0474 28.5522 16.0826C28.6977 15.9405 28.5556 15.8927 28.4876 15.8248ZM16.6436 25.9822V23.4021C16.6425 22.476 16.6425 21.5494 16.6414 20.6233V20.6025C16.6408 20.1234 16.6408 19.6449 16.6397 19.1664V19.1462C16.6391 18.6143 16.6385 18.0825 16.6374 17.5506V17.545C16.6374 17.331 16.6369 17.1176 16.6363 16.9036V16.8806C16.6363 16.7396 16.6425 16.6548 16.8463 16.6554C18.8418 16.6616 20.8372 16.6627 22.8321 16.6633H22.8489C23.8402 16.6633 24.8315 16.6633 25.8227 16.6638C25.8575 16.6638 25.8924 16.67 25.9901 16.6784C22.8894 19.8089 19.7994 22.8798 16.6436 25.9822ZM16.6459 6.05819C16.7705 6.09582 16.8362 6.18736 16.9115 6.26094C17.9342 7.26287 18.9552 8.26704 19.9774 9.26954C20.0437 9.33468 20.1155 9.39365 20.1846 9.45543C20.2178 9.48801 20.2509 9.52002 20.284 9.55203C20.4037 9.70255 20.5379 9.83902 20.6923 9.95415C20.7109 10.0036 20.7446 10.0378 20.7945 10.0552C20.8198 10.112 20.8603 10.153 20.9175 10.1766C21.3758 10.6416 21.8296 11.1105 22.2924 11.5711C23.2915 12.564 24.2951 13.553 25.2965 14.5432C25.3184 14.5993 25.3571 14.6392 25.4133 14.6611C25.4318 14.7139 25.4672 14.7498 25.52 14.7684C25.5419 14.8251 25.5807 14.8644 25.6374 14.8863C25.6565 14.9385 25.6919 14.9739 25.7441 14.993C25.8059 15.0711 25.8677 15.1486 25.9283 15.225C25.8688 15.2997 25.798 15.2676 25.7385 15.2676C22.8096 15.2682 19.8802 15.2643 16.9514 15.2704C16.72 15.271 16.6357 15.2384 16.6369 14.9734C16.6414 13.4895 16.6419 12.0052 16.6408 10.5214V10.5057C16.6447 10.3018 16.6492 10.1002 16.6593 9.89631C16.6683 9.70592 16.6537 9.51328 16.6402 9.32008V9.30492C16.6391 8.27435 16.6374 7.24433 16.6369 6.21376C16.6369 6.16883 16.6419 6.12334 16.6459 6.05819ZM15.3058 6.16209C15.3406 6.22668 15.353 6.30081 15.3496 6.38955C15.3479 6.43279 15.3451 6.4912 15.3592 6.53613V7.16009C15.3171 7.22861 15.3491 7.32689 15.3491 7.40103C15.3429 9.94629 15.344 12.4916 15.344 15.0368C15.344 15.0784 15.3463 15.1194 15.3513 15.1587C15.3339 15.2306 15.2834 15.2733 15.1379 15.2727C12.2107 15.2637 9.28357 15.2665 6.35585 15.2665H6.14299C9.20045 12.1961 12.2141 9.18529 15.3058 6.16209ZM15.3603 25.78C15.3603 25.8048 15.3519 25.8289 15.339 25.9036C12.2253 22.8546 9.17686 19.7915 6.0902 16.661H7.71665C10.1765 16.661 12.637 16.6621 15.0975 16.6593C15.2626 16.6593 15.367 16.6526 15.3665 16.8834C15.3575 19.8488 15.3609 22.8141 15.3603 25.78Z" fill="white"/>
  <path d="M11.58 25.5402C10.9724 25.5425 10.3641 25.5464 9.75646 25.5329C7.90423 25.4908 6.57432 24.1469 6.55129 22.2974C6.54399 21.6898 6.54904 21.0821 6.5468 20.4739C6.5468 20.3829 6.56477 20.2863 6.48727 20.2105C6.12895 19.8611 5.77232 19.5112 5.37301 19.1204C5.42243 20.3037 5.34493 21.4258 5.42019 22.5474C5.57688 24.873 7.32633 26.5938 9.65368 26.6663C10.7095 26.6989 11.7671 26.6758 12.824 26.677C12.8656 26.677 12.9189 26.6927 12.9459 26.6242C12.61 26.3068 12.2691 25.9895 11.9344 25.6655C11.8316 25.5655 11.7182 25.5397 11.58 25.5402Z" fill="white"/>
  <path d="M20.5154 6.46424C21.1051 6.4575 21.6943 6.4547 22.2834 6.46649C23.9671 6.49906 25.3611 7.76159 25.5442 9.4369C25.6172 10.1069 25.5576 10.7831 25.5678 11.4559C25.5689 11.548 25.5369 11.6497 25.6003 11.7289C25.9328 12.1389 26.3203 12.4938 26.7185 12.8521C26.7039 11.616 26.8303 10.3911 26.6455 9.17631C26.3473 7.21176 24.8214 5.6454 22.9433 5.39773C21.6898 5.23205 20.4267 5.37302 19.1681 5.32022C19.491 5.66225 19.7977 5.97788 20.0931 6.30306C20.2121 6.43392 20.3464 6.46649 20.5154 6.46424Z" fill="white"/>
  <path d="M6.40021 11.826C6.5131 11.7098 6.54848 11.5834 6.54567 11.4239C6.53613 10.8909 6.53556 10.358 6.5395 9.82498C6.55466 7.91322 7.94916 6.50131 9.8626 6.46593C10.4422 6.45582 11.0218 6.46761 11.6014 6.46705C11.6845 6.46705 11.8002 6.48727 11.8457 6.4429C12.2107 6.08066 12.5629 5.70606 12.9111 5.34213C11.8086 5.34213 10.6949 5.29495 9.58628 5.35224C7.39147 5.46625 5.65831 7.15785 5.4303 9.34592C5.31011 10.5023 5.40895 11.6626 5.42524 12.8555C5.74986 12.5118 6.0711 12.1653 6.40021 11.826Z" fill="white"/>
  <path d="M26.7118 21.0231C26.7213 20.4031 26.714 19.7831 26.714 19.0928C26.358 19.4596 26.0232 19.7499 25.7424 20.0948C25.5801 20.1925 25.5414 20.3396 25.5408 20.5227C25.5397 21.2803 25.6127 22.0436 25.5099 22.7945C25.2976 24.3462 24.0373 25.465 22.4552 25.5301C21.792 25.5576 21.127 25.5357 20.4626 25.5369C20.3615 25.5374 20.2599 25.5195 20.1751 25.6076C19.8353 25.9598 19.491 26.308 19.1164 26.6904C20.3868 26.659 21.619 26.7387 22.8495 26.6365C23.0163 26.623 23.1831 26.5882 23.3465 26.5512C25.1825 26.1327 26.6343 24.4153 26.6562 22.6389C26.6668 22.6131 26.6781 22.5884 26.6781 22.5592V22.512C26.7539 22.0178 26.7045 21.519 26.7118 21.0231Z" fill="white"/>
</svg>
